<svg xmlns="http://www.w3.org/2000/svg" width="25" height="25" viewBox="0 0 25 25">
  <path id="Exclusion_1" data-name="Exclusion 1" d="M12.5,25A12.5,12.5,0,0,1,3.661,3.662a12.5,12.5,0,1,1,13.7,20.356A12.424,12.424,0,0,1,12.5,25ZM14.554,6.548a1.47,1.47,0,0,0-.765.237l0,0c-.117.124-2.873,3.049-4.176,4.351l-.043.043c-.554.554-.669.669-.657,1.112a.668.668,0,0,0,.244.5l.025.022c.085.078.235.223.423.41l.008.008,3.932,4.308a1.667,1.667,0,0,0,.967.372,1.2,1.2,0,0,0,.853-.372,1.148,1.148,0,0,0,.293-1.548l-.075-.081c-1.481-1.6-2.494-2.7-2.853-3.1-.23-.252-.263-.375-.243-.513a1.187,1.187,0,0,1,.243-.553L15.4,8.734c.007-.01.72-1.037,0-1.8A1.141,1.141,0,0,0,14.554,6.548Z" fill="#474747"/>
</svg>
