<svg xmlns="http://www.w3.org/2000/svg" width="123.224" height="96.039" viewBox="0 0 123.224 96.039">
  <g id="Eye" transform="translate(1.952 1.5)">
    <path id="Union_2" data-name="Union 2" d="M2387.266-2904.962c0-.073,0-.145,0-.218a43,43,0,0,1-11.283,1.581c-29.834,0-59.984-35.863-59.984-35.863S2346.15-2976,2375.984-2976s59.352,36.539,59.352,36.539a139.579,139.579,0,0,1-15.343,15.288,21.994,21.994,0,0,1,11.272,19.211,22,22,0,0,1-22,22A22,22,0,0,1,2387.266-2904.962Z" transform="translate(-2316 2976)" fill="none" stroke="#474747" stroke-width="3"/>
    <g id="Ellipse_35" data-name="Ellipse 35" transform="translate(79.266 57.039)" fill="none" stroke="#474747" stroke-width="2">
      <circle cx="11" cy="11" r="11" stroke="none"/>
      <circle cx="11" cy="11" r="10" fill="none"/>
    </g>
    <line id="Line_24" data-name="Line 24" x2="6" y2="6" transform="translate(97.766 75.539)" fill="none" stroke="#474747" stroke-linecap="round" stroke-width="2"/>
    <path id="Path_200" data-name="Path 200" d="M-2116.66,4333.337c.04-6.525,5.592-13.3,12.688-13.3s13.134,4.931,13.134,13.3-7.726,13.153-13.134,13.153-6.469-1.79-6.469-1.79a1,1,0,0,1,0-1.216c.457-.686,1.255,0,1.255,0s1.066,1.216,5.215,1.216,11.208-4.215,11.208-11.363c.29-6.08-4.194-11.342-11.208-11.342s-10.927,6.75-10.927,11.342a10.993,10.993,0,0,0,2.43,7.178.9.9,0,0,1,0,1.315.883.883,0,0,1-1.235.138S-2116.7,4339.862-2116.66,4333.337Z" transform="translate(2164.266 -4296.961)" fill="#474747"/>
    <path id="Path_201" data-name="Path 201" d="M-2132.1,4346.555c-.172.563-.139.821.317,1.532s.566.579,1.135.924c1.084.158,1.646-.527,1.505-1.308a8.044,8.044,0,0,0-.647-1.037c-.369-.549-.2-.421-.858-.718C-2131.353,4345.875-2131.925,4345.993-2132.1,4346.555Z" transform="translate(2164.266 -4296.961)" fill="#474747"/>
    <path id="Path_205" data-name="Path 205" d="M-2132.375,4346.088c-.172.563.055,1.071.511,1.782a2.549,2.549,0,0,0,1.081,1.154c1.155.168,1.549-.409,1.409-1.19a10.957,10.957,0,0,0-.765-1.173c-.369-.549-.269-.937-.925-1.234C-2131.772,4345.354-2132.2,4345.525-2132.375,4346.088Z" transform="translate(3277.969 -3546.198) rotate(16)" fill="#474747"/>
    <path id="Path_203" data-name="Path 203" d="M-2134.906,4337.941s.192,1.285,1.264,1.059.669-1.562.669-1.562a37.843,37.843,0,0,1-.312-6.316c.716-11.4,13.485-25.982,28.267-25.982s29.338,12.141,30.085,28.173a27.392,27.392,0,0,1-3.638,13.223l3.035-.759a26.962,26.962,0,0,0,2.873-12.464c.569-11.534-11.893-30.284-32.355-30.284s-30.142,20.8-30.142,28.093C-2135.168,4334.93-2134.906,4337.941-2134.906,4337.941Z" transform="translate(2164.266 -4296.961)" fill="#474747"/>
    <path id="Path_204" data-name="Path 204" d="M-2128.286,4352.475c-.625-1.25,1.486-1.943,1.919-1.294,4.99,6.338,14.33,10.174,22.723,10.174s11.417-1.564,11.417-1.564l-.982,2.811a35.674,35.674,0,0,1-10.436,1.387C-2109.974,4363.989-2124.805,4359.481-2128.286,4352.475Z" transform="translate(2164.266 -4296.961)" fill="#474747"/>
    <path id="Path_206" data-name="Path 206" d="M-2093.025,4368.036c-.452-18.251,17.875-26.321,33.331-19" transform="translate(2164.266 -4296.961)" fill="none" stroke="#474747" stroke-width="3"/>
  </g>
</svg>
