<svg xmlns="http://www.w3.org/2000/svg" width="123" height="123" viewBox="0 0 123 123">
  <g id="mountain" transform="translate(0)">
    <g id="Group_108" data-name="Group 108" transform="translate(0 0)">
      <path id="Path_173" data-name="Path 173" d="M123,189.365a1.8,1.8,0,0,0-.187-.806l-13.483-26.966a1.8,1.8,0,0,0-3.223,1.611l12.179,24.358H92.22L74.193,151.509l.937-1.874.431.3a3.671,3.671,0,0,0,4.559-.326l2.526-2.346a.038.038,0,0,1,.035-.012.037.037,0,0,1,.032.019l1.517,2.177a3.649,3.649,0,0,0,5.986,0l1.517-2.177a.038.038,0,0,1,.032-.019.039.039,0,0,1,.035.012l2.526,2.345a3.67,3.67,0,0,0,4.559.326l.432-.3,3.022,6.044a1.8,1.8,0,0,0,3.223-1.612L91.005,124.953a4.227,4.227,0,0,0-7.563,0l-.9,1.792a19.763,19.763,0,0,0-21.961-2.45l-9.915-19.83a4.688,4.688,0,0,0-4.216-2.606h0a4.688,4.688,0,0,0-4.216,2.606l-19.4,38.8a1.8,1.8,0,0,0,3.223,1.611l4.281-8.563,1.105.765a4.254,4.254,0,0,0,5.284-.378l3.32-3.083a.625.625,0,0,1,.938.1l1.994,2.861a4.228,4.228,0,0,0,6.938,0l1.994-2.861a.625.625,0,0,1,.938-.1l3.32,3.083a4.254,4.254,0,0,0,5.284.378l1.105-.765,25.626,51.253H4.717l17.566-35.133a1.8,1.8,0,0,0-3.223-1.611L.19,188.56a1.794,1.794,0,0,0-.187.806H0v9.222a1.8,1.8,0,0,0,1.8,1.8H121.2a1.8,1.8,0,0,0,1.8-1.8v-9.222h0ZM87.224,126.218a.6.6,0,0,1,.558.345L97.69,146.38l-.855.592a.044.044,0,0,1-.055,0l-2.526-2.345a3.648,3.648,0,0,0-5.476.587l-1.517,2.177a.045.045,0,0,1-.073,0L85.67,145.21a3.648,3.648,0,0,0-5.475-.588l-2.526,2.346a.045.045,0,0,1-.056,0l-.855-.592,9.908-19.817a.6.6,0,0,1,.558-.344Zm-17.472-.573a16.191,16.191,0,0,1,11.123,4.445l-8.7,17.391L62.2,127.518A16.08,16.08,0,0,1,69.751,125.645Zm-10.343,8.469a.629.629,0,0,1-.781-.056l-3.32-3.083a4.228,4.228,0,0,0-6.346.681l-1.994,2.861a.625.625,0,0,1-1.025,0l-1.994-2.861a4.228,4.228,0,0,0-6.346-.681l-3.32,3.083a.628.628,0,0,1-.781.056l-1.529-1.058,13.49-26.979a1.111,1.111,0,0,1,1.986,0l13.49,26.979ZM3.6,196.785v-5.618H119.4v5.618Z" transform="translate(0 -77.389)" fill="#474747"/>
      <path id="Path_174" data-name="Path 174" d="M384.417,81.685h16.017a7.627,7.627,0,0,0,1.489-15.107,10.539,10.539,0,0,0-18.993,0,7.627,7.627,0,0,0,1.488,15.107Zm-.16-11.644a1.8,1.8,0,0,0,1.629-1.2,6.935,6.935,0,0,1,13.081,0,1.8,1.8,0,0,0,1.629,1.2,4.022,4.022,0,0,1-.161,8.041H384.417a4.022,4.022,0,0,1-.16-8.041Z" transform="translate(-286.273 -46.049)" fill="#474747"/>
      <path id="Path_175" data-name="Path 175" d="M214.709,21.076h16.017A7.627,7.627,0,0,0,232.214,5.97a10.539,10.539,0,0,0-18.993,0,7.627,7.627,0,0,0,1.488,15.107Zm-.16-11.644a1.8,1.8,0,0,0,1.629-1.2,6.935,6.935,0,0,1,13.08,0,1.8,1.8,0,0,0,1.629,1.2,4.022,4.022,0,0,1-.16,8.041H214.709a4.022,4.022,0,0,1-.16-8.041Z" transform="translate(-157.335 0)" fill="#474747"/>
      <path id="Path_176" data-name="Path 176" d="M7.626,53.4H23.643a7.627,7.627,0,0,0,1.488-15.107,10.539,10.539,0,0,0-18.993,0A7.627,7.627,0,0,0,7.626,53.4ZM7.465,41.757a1.8,1.8,0,0,0,1.629-1.2,6.935,6.935,0,0,1,13.08,0,1.8,1.8,0,0,0,1.629,1.2,4.022,4.022,0,0,1-.16,8.041H7.626a4.022,4.022,0,0,1-.161-8.041Z" transform="translate(0 -24.559)" fill="#474747"/>
    </g>
  </g>
</svg>
