<svg id="Capa_1" enable-background="new 0 0 512 512" height="512" viewBox="0 0 512 512" width="512" xmlns="http://www.w3.org/2000/svg"><g><g><path d="m511.986 466.113c0-1.146-.249-2.295-.778-3.353l-56.126-112.247c-1.853-3.705-6.354-5.207-10.063-3.354-3.704 1.853-5.206 6.357-3.354 10.062l50.698 101.393h-108.488l-75.041-150.08 3.9-7.8 1.796 1.243c5.814 4.027 13.796 3.456 18.979-1.357l10.516-9.765c.03-.029.063-.056.146-.048.084.009.108.044.132.079l6.316 9.063c2.839 4.072 7.496 6.502 12.459 6.502s9.62-2.431 12.459-6.502l6.315-9.062c.024-.035.049-.07.134-.079.084-.006.115.02.146.049l10.516 9.763c5.182 4.813 13.164 5.384 18.977 1.358l1.798-1.245 12.58 25.159c1.314 2.628 3.963 4.147 6.714 4.147 1.127 0 2.271-.255 3.349-.793 3.704-1.853 5.206-6.357 3.354-10.062l-60.602-121.194c-2.998-6.004-9.029-9.733-15.741-9.733s-12.743 3.729-15.739 9.73l-3.73 7.461c-14.782-12.543-33.681-19.577-53.262-19.577-13.405 0-26.439 3.227-38.154 9.378l-41.272-82.543c-3.345-6.69-10.069-10.847-17.549-10.847-.001 0-.001 0-.001 0-7.48 0-14.205 4.156-17.551 10.847l-80.75 161.5c-1.853 3.705-.351 8.21 3.354 10.062 3.706 1.854 8.211.35 10.063-3.354l17.822-35.644 4.601 3.185c6.738 4.666 15.99 4.004 21.996-1.574l13.819-12.833c.755-.702 1.604-.728 2.048-.68.44.047 1.267.253 1.856 1.099l8.302 11.91c3.289 4.72 8.688 7.538 14.44 7.538s11.151-2.818 14.44-7.537l8.302-11.911c.59-.846 1.416-1.052 1.856-1.099.443-.048 1.293-.021 2.048.68l13.819 12.832c6.007 5.578 15.258 6.24 21.995 1.574l4.601-3.185 106.672 213.345h-347.468l73.122-146.244c1.853-3.705.351-8.21-3.354-10.062-3.707-1.854-8.211-.351-10.063 3.354l-78.548 157.098c-.53 1.058-.778 2.207-.778 3.354-.005 0-.009 0-.014 0v38.386c0 4.142 3.357 7.5 7.5 7.5h497c4.143 0 7.5-3.358 7.5-7.5v-38.386c-.005 0-.009-.001-.014-.001zm-148.909-262.857c.6 0 1.698.187 2.323 1.438l41.244 82.487-3.56 2.464c-.071.049-.167.043-.231-.017l-10.515-9.763c-3.224-2.994-7.589-4.442-11.952-3.972-4.374.469-8.324 2.807-10.841 6.416l-6.316 9.063c-.07.103-.234.103-.305 0l-6.316-9.062c-2.515-3.608-6.466-5.947-10.839-6.417-4.378-.469-8.73.979-11.953 3.971l-10.515 9.764c-.063.059-.162.065-.233.016l-3.558-2.463 41.245-82.491c.624-1.247 1.723-1.434 2.322-1.434zm-72.731-2.386c17.257 0 33.854 6.699 46.299 18.503l-36.195 72.39-41.547-83.094c9.637-5.113 20.383-7.799 31.443-7.799zm-43.053 35.252c-.995.689-2.362.592-3.25-.233l-13.819-12.833c-3.736-3.469-8.785-5.147-13.854-4.603s-9.648 3.254-12.563 7.437l-8.302 11.911c-.675.969-1.627 1.114-2.134 1.114s-1.459-.145-2.134-1.114l-8.302-11.911c-2.915-4.182-7.494-6.893-12.563-7.437-5.065-.544-10.119 1.134-13.854 4.603l-13.819 12.833c-.887.824-2.255.923-3.251.232l-6.363-4.405 56.152-112.303c1.153-2.306 3.275-2.555 4.135-2.555.858 0 2.98.249 4.134 2.555l56.152 112.304zm-232.293 260.878v-23.386h482v23.386z"/><path d="m408.534 148.341h66.671c17.504 0 31.744-14.24 31.744-31.744 0-15.428-10.881-28.268-25.548-31.139-7.239-15.037-22.576-24.849-39.531-24.849-16.956 0-32.293 9.812-39.531 24.849-14.667 2.872-25.548 15.711-25.548 31.139 0 17.504 14.24 31.744 31.743 31.744zm-.668-48.469c3.07-.12 5.758-2.101 6.78-4.999 4.064-11.522 15.005-19.263 27.224-19.263s23.159 7.741 27.225 19.264c1.022 2.898 3.709 4.879 6.779 4.999 9.015.352 16.075 7.699 16.075 16.726 0 9.232-7.512 16.744-16.744 16.744h-66.671c-9.232 0-16.743-7.511-16.743-16.744 0-9.028 7.061-16.375 16.075-16.727z"/><path d="m238.827 87.732h66.671c17.504 0 31.744-14.24 31.744-31.744 0-15.428-10.881-28.268-25.549-31.139-7.238-15.037-22.574-24.849-39.53-24.849s-32.293 9.812-39.531 24.849c-14.668 2.872-25.549 15.711-25.549 31.139 0 17.504 14.24 31.744 31.744 31.744zm-.668-48.47c3.07-.12 5.758-2.101 6.78-4.999 4.065-11.522 15.005-19.263 27.224-19.263s23.158 7.741 27.223 19.263c1.022 2.898 3.71 4.879 6.78 4.999 9.015.352 16.076 7.699 16.076 16.726 0 9.233-7.512 16.744-16.744 16.744h-66.671c-9.232 0-16.744-7.511-16.744-16.744 0-9.027 7.062-16.374 16.076-16.726z"/><path d="m31.744 120.057h66.671c17.503 0 31.743-14.24 31.743-31.744 0-15.428-10.881-28.268-25.548-31.139-7.238-15.037-22.575-24.849-39.531-24.849s-32.293 9.812-39.531 24.849c-14.667 2.871-25.548 15.711-25.548 31.139 0 17.504 14.24 31.744 31.744 31.744zm-.669-48.47c3.07-.12 5.758-2.101 6.78-4.999 4.065-11.522 15.005-19.263 27.224-19.263s23.159 7.741 27.224 19.263c1.022 2.898 3.71 4.879 6.78 4.999 9.015.352 16.075 7.699 16.075 16.726 0 9.233-7.511 16.744-16.743 16.744h-66.671c-9.232 0-16.744-7.511-16.744-16.744 0-9.027 7.061-16.374 16.075-16.726z"/></g></g></svg>