<svg xmlns="http://www.w3.org/2000/svg" width="42" height="42.001" viewBox="0 0 42 42.001">
  <path id="Exclusion_1" data-name="Exclusion 1" d="M21,42A20.993,20.993,0,0,1,6.15,6.152a21,21,0,1,1,23.024,34.2A20.871,20.871,0,0,1,21,42ZM24.45,11a2.47,2.47,0,0,0-1.286.4l0,0c-.2.208-4.826,5.122-7.015,7.311l-.073.073c-.93.93-1.124,1.124-1.1,1.868a1.123,1.123,0,0,0,.41.832l.042.038c.142.131.395.375.71.689l.014.014,6.6,7.237a2.8,2.8,0,0,0,1.624.625,2.012,2.012,0,0,0,1.432-.625,1.928,1.928,0,0,0,.493-2.6l-.126-.137c-2.488-2.692-4.19-4.541-4.793-5.2-.386-.424-.441-.63-.409-.862a2,2,0,0,1,.408-.928l4.5-5.06c.012-.017,1.209-1.743,0-3.021A1.918,1.918,0,0,0,24.45,11Z" fill="#474747"/>
</svg>
