<svg xmlns="http://www.w3.org/2000/svg" width="42" height="42.001" viewBox="0 0 42 42.001">
  <path id="Exclusion_2" data-name="Exclusion 2" d="M21,42A21,21,0,0,1,6.151,6.151a21,21,0,0,1,29.7,29.7A20.863,20.863,0,0,1,21,42ZM18.017,11a1.915,1.915,0,0,0-1.426.652c-1.209,1.278-.012,3,0,3.021l4.5,5.059a2,2,0,0,1,.409.929c.032.232-.023.438-.409.862-.6.662-2.3,2.508-4.79,5.2l-.129.14a1.928,1.928,0,0,0,.493,2.6,2.012,2.012,0,0,0,1.432.625,2.777,2.777,0,0,0,1.623-.624l6.606-7.238.014-.014c.316-.313.569-.558.711-.689l.041-.037a1.133,1.133,0,0,0,.41-.833c.021-.744-.173-.938-1.1-1.868l-.073-.073c-2.055-2.055-6.188-6.433-7-7.289L19.3,11.4A2.5,2.5,0,0,0,18.017,11Z" fill="#474747"/>
</svg>
