<svg xmlns="http://www.w3.org/2000/svg" width="25" height="25" viewBox="0 0 25 25">
  <path id="Exclusion_2" data-name="Exclusion 2" d="M12.5,25A12.5,12.5,0,0,1,3.661,3.661,12.5,12.5,0,0,1,21.339,21.339,12.419,12.419,0,0,1,12.5,25ZM10.725,6.548a1.14,1.14,0,0,0-.849.388c-.72.761-.007,1.788,0,1.8l2.676,3.011a1.188,1.188,0,0,1,.243.553c.019.138-.014.261-.243.513-.358.394-1.371,1.493-2.851,3.095l-.077.083a1.148,1.148,0,0,0,.293,1.548,1.2,1.2,0,0,0,.853.372,1.653,1.653,0,0,0,.966-.371l3.932-4.308.008-.008c.188-.187.338-.332.423-.41l.025-.022a.674.674,0,0,0,.244-.5c.012-.443-.1-.558-.657-1.112l-.043-.043C14.445,9.916,11.985,7.31,11.5,6.8l-.014-.015A1.488,1.488,0,0,0,10.725,6.548Z" fill="#474747"/>
</svg>
