<svg xmlns="http://www.w3.org/2000/svg" width="215.239" height="244.491" viewBox="0 0 215.239 244.491"><defs><style>.a,.c{fill:none;stroke-linecap:round;}.a,.b,.c{stroke:#e8e8e8;}.a{stroke-linejoin:round;stroke-width:6px;}.b{fill:#e8e8e8;}.c{stroke-width:5px;}</style></defs><g transform="translate(2.935 3.002)"><path class="a" d="M1171.72,4710.23c62.238,0,81.823-32.531,94.712-73.041s-1.228-105.571-65.061-128.282-125.826,12.275-136.875,66.289,10.372,64.208,28.848,96.365S1078,4740.3,1078,4740.3s54.314,4.239,66.761-77.707" transform="translate(-1061.477 -4501.871)"/><path class="b" d="M1105.49,4581.18c58.509,7.075,102.963,38.668,102.963,38.668s-18.99,46.685-69.447,25.936S1105.49,4581.18,1105.49,4581.18Z" transform="translate(-1053.477 -4494.89)"/><path class="c" d="M1109.89,4576.57c57.568,6.6,99.6,37.622,99.6,37.622" transform="translate(-1053.502 -4495.241)"/><path class="b" d="M3.376,0A3.376,3.376,0,0,1,6.752,3.376V43.042l-6.439.4L0,3.376A3.376,3.376,0,0,1,3.376,0Z" transform="translate(98.957 39.914) rotate(18)"/><path class="b" d="M2.779,0C4.643,0,6.752,1.093,6.752,2.957l-.6,40.085-6-.872L0,2.957C0,1.093.915,0,2.779,0Z" transform="translate(135.962 53.816) rotate(18)"/></g></svg>