<svg xmlns="http://www.w3.org/2000/svg" width="334.965" height="162.265" viewBox="0 0 334.965 162.265"><defs><style>.a{fill:#e8e8e8;}.b{fill:#2a843c;}.c{fill:#265d35;}.d{fill:#aa4da3;}</style></defs><g transform="translate(-1182.426 -5429.444)"><g transform="translate(1182.426 5422.444)"><path class="a" d="M1210.429,5448.542c0-17.751,18.242-26.1,18.242-26.1s3.791,4.153,3.137,7.426,3.068,2.406,2.986,7.077-3.1,6.467-1.673,10.3,3.756,4.518,7.808,6.863,7.092.9,8.726,3.019-2.648,2.033-2.648,4.539,1.265,3.318,2.648,4.825c.8.859,3.027.418,3.027,2.364,0,1.506-1.586,2.594-2.29,4.54-.892,2.48-2.1,5.359-2.1,5.359a21.172,21.172,0,0,1-4.789.411C1227.357,5479.373,1210.429,5466.292,1210.429,5448.542Z" transform="translate(-1174.844 -5415.445)"/><path class="a" d="M1254.066,5424.714s-4.506,1.079-6.525,3.207-1.991,3.815-.885,5.308,5.64-1.188,5.64,1.659c0,1.21-3.4,1.529-4.755,3.649-1.4,2.186-.885,6.083-.885,6.083s-5.449-3.207-5.972-2.1,4.24,3.815,3.881,5.861-5.323.2-4.966,1.718,6.02,3.992,6.02,3.992a21.193,21.193,0,0,1,8.376,1.44,11.113,11.113,0,0,1,6.15,6.669c.458,1.767-5.235,8.18-5.235,8.18l-7.525,7.918s19.508-8.8,19.508-29.254S1254.066,5424.714,1254.066,5424.714Z" transform="translate(-1171.115 -5415.155)"/></g><g transform="translate(1238.017 5479.635)"><path class="a" d="M1239.732,5506.951c11.176-15.61,26.726-27.454,36.93-28.912a134.644,134.644,0,0,1,30.856,0c5.845.882,7.93,7.6,8.017,10.2s-.383,7.487-4.21,9c-2.392.949-7.964.266-10.732-2.29-1.246-1.146-.893-4.789-1.243-5.3-.933-1.362-3.031-1.47-10.993,2.683s-14.014,7.238-25.049,17.9-21.579,29.683-22.442,41.412,14.75,17.035,27.459,12.736,26.8-13.37,26.8-13.37,3.1-16.1,7.7-23.324,8.578,2.579,8.578,2.579,6.662-6.569,6.375,3.926-2.852,9.391-6.375,21.9,1,22.707-1.85,25.977-8.886,1.706-11.4-5.045-3.665-9.483-3.665-9.483-22.879,17.079-40.11,12.795-26.123-10.788-28.179-30.038S1228.556,5522.562,1239.732,5506.951Z" transform="translate(-1225.712 -5477.149)"/><path class="a" d="M1319.919,5518.732c-2.654,3.871.221,6.193-8.073,29.969-.442,2.765,1.216,3.18,3.318,4.313s2.543,3.1,4.2,0c5.75-24.992,18.578-30.964,18.026-28.973,1.141,3.042-.774,9.206-.774,13.381s.774,3.317.774,3.317,5.087,2.543,5.861-8.736c-1.77-25.767-18.91-5.087-17.03-4.866C1326.333,5526.362,1322.573,5514.862,1319.919,5518.732Z" transform="translate(-1221.47 -5467.419)"/><path class="a" d="M1348.75,5518.881c1.121-.935,12.635-6.39,5.72,8.935-12.522,38.874,4.559,11.508,3.625,18.236s-2.875,9.489-7.476,9.489-8.25-3.476-8.484-12.4S1347.628,5519.816,1348.75,5518.881Z" transform="translate(-1217.588 -5467.517)"/><path class="a" d="M1365.147,5523.119c-2.323,7.125-9.806,17.8-4.307,27.516,9.293,6.659,11.822-12.83,17.321-15.121.66,1.979-2.242,16.467,6.8,19.795,9.513,1.1,9.971-4.582,11.438-6.325.929-4.027,1.316-5.75-5.5-.64-1.7,1.084-7.057,1.375-.367-21.9.155-3.562-2.958-6.5-8.456-3.322s-13.165,14.094-13.165,14.094,3.464-9.593,2.65-13.155C1371.287,5522.225,1368.171,5515.535,1365.147,5523.119Z" transform="translate(-1215.446 -5467.21)"/><path class="a" d="M15.667,65.9h0a5.658,5.658,0,0,1-3.675-1.543,14.3,14.3,0,0,1-2.764-3.392A27.58,27.58,0,0,1,6.88,56.031v.013c-.023.449-.267,4.4-1.86,4.944a2.892,2.892,0,0,1-.917.137A4.276,4.276,0,0,1,.96,59.715a4.484,4.484,0,0,1-.895-3.684C.274,54.568,1.965,48.579,4.106,41,8.3,26.135,14.05,5.783,13.229,3.218,15.483.8,17.54-.473,19.178-.473A2.644,2.644,0,0,1,21.234.45a5.858,5.858,0,0,1,1.043,4.506c-.459,3.981-6.968,21.779-7.033,21.958l.01-.005a19.633,19.633,0,0,1,6.326-1.163c3.171,0,5.565,1.022,7.116,3.038,2.57,3.34,2.734,9.329.487,17.8-2.426,6.9-4.9,12.029-7.343,15.233C19.771,64.527,17.694,65.9,15.667,65.9ZM20.83,30.916c-3.226,0-8.451,7.692-10.232,11.643-1.725,3.826-2.435,9.991-.8,12.516a2.423,2.423,0,0,0,2.127,1.2,4.883,4.883,0,0,0,2.134-.6,16.142,16.142,0,0,0,6.412-6.151,22.472,22.472,0,0,0,2.985-13.788C23.2,32.54,22.32,30.916,20.83,30.916Z" transform="translate(181.434 24.661)"/><path class="a" d="M1429.964,5518.283c5.123-1.548,7.387-1.31,9.769,1.787-7.152,21.232-13.343,34.55-.6,25.138.414-.233,1.787,1.43.6,4.051-1.668,4.169-5.48,6.672-7.744,6.553s-8.042-4.736-8.578-13.582S1426.509,5531.269,1429.964,5518.283Z" transform="translate(-1207.196 -5467.495)"/><path class="a" d="M1440.641,5499.9c-1.876-.328-7.625,7.743-7.625,10.484s5.361,3.455,8.459,2.145C1451.483,5500.38,1442.518,5500.231,1440.641,5499.9Z" transform="translate(-1205.96 -5469.728)"/><path class="a" d="M12.3,40.071h0a12.116,12.116,0,0,1-8.115-3.55A13.811,13.811,0,0,1,.014,26.93,29.562,29.562,0,0,1,7.551,6.107c2.8-3.945,5.585-4.773,7.432-4.773,2.651,0,4.362,1.609,4.5,2.436C25.433,1.268,30.463,0,34.431,0a12.5,12.5,0,0,1,9.482,3.77c-.33-.032-.776-.05-1.29-.05-1.463,0-14.462.237-20.159,8.457a22.115,22.115,0,0,1,1.844,12.474c-.6,4.98-5.189,14.589-10.9,15.347A8.5,8.5,0,0,1,12.3,40.071Zm1.964-28.637c-1.051,0-2.074.731-3.039,2.174C9.8,15.727,8.481,19.392,7.3,24.5a7.391,7.391,0,0,0,.452,6.335,2.176,2.176,0,0,0,1.772,1.11c1.5,0,3.114-1.936,4.544-5.452C17.7,17.546,16.63,13.754,16,12.539a1.811,1.811,0,0,0-1.018-1.009A3.108,3.108,0,0,0,14.259,11.434Z" transform="translate(235.462 47.665)"/></g><g transform="translate(1364.147 5498.33)"><path class="b" d="M1334.125,5508.821c13.326-.649,12.136,6.915,26.506,9.517,6.561,1.193,10.3,7.9,19.6,7.191-2.538-5.71-6.583-23.266-19.6-25.308S1336.28,5507.521,1334.125,5508.821Z" transform="translate(-1333.846 -5499.93)"/><path class="c" d="M1340.877,5504.346c13.326-.649,9.639,13.985,24.009,16.588,6.561,1.193,13.078.71,22.375,0-17.8-9.017-14.568-17.524-27.583-19.566S1343.032,5503.045,1340.877,5504.346Z" transform="translate(-1340.877 -5495.31)"/></g><path class="a" d="M5.645,116.426a.247.247,0,0,1-.119-.03.869.869,0,0,0-.136-.06c-.072-.026-.1-.036-.208-.188-.154-.22,0-.348,0-.349l4.792-2.41a.249.249,0,0,1-.043,0c-.107.006-.433.024-.878.024-1.737,0-4.828-.251-6.013-1.93a3.207,3.207,0,0,1-.181-3.043c.714-2.006,2.592-4.1,4.148-5.694-1.914-.361-3.758-.819-4.286-1.715a1.2,1.2,0,0,1-.077-1.039C3.1,98.613,5.6,95.65,8.239,92.514l0,0c.962-1.141,1.956-2.321,2.9-3.485-.664-.128-1.37-.236-2.054-.341C6.6,88.3,4.254,87.943,3.376,86.7a2.087,2.087,0,0,1-.295-1.678,14.686,14.686,0,0,1,2.073-4.668c-.322.03-.614.044-.867.044a2.367,2.367,0,0,1-1.867-.572,1.524,1.524,0,0,1-.245-1.3C2.592,76.016,5.8,71.5,8.628,67.509c.387-.545.752-1.06,1.114-1.574-.925-.251-1.965-.456-2.97-.655-2.4-.474-4.668-.921-5.033-1.912S3.126,61,5.161,59.425c.71-.551,1.445-1.121,2.141-1.715A22.02,22.02,0,0,1,2.57,56.5C1.11,55.865.439,55.045.516,53.995c.151-2.059,2.422-4.617,5.152-7.5q-.356-.312-.712-.623C2.29,43.544-.227,41.349.017,39.414c.186-1.471,2.22-3.2,4.188-4.865.871-.739,1.772-1.5,2.507-2.239h0a20.981,20.981,0,0,1-2.394-3.876,4.673,4.673,0,0,1-.325-3.6,1.376,1.376,0,0,1,.6-.13c1.175,0,2.639,1.283,4.046,2.67a6.322,6.322,0,0,0-.076-.648c-.047-.154-4.69-15.44-3.379-16.832.028,0,.056,0,.082,0,1.339,0,3.125,3.157,4.839,6.39C9.259,13,8.476,9.693,8.916,8.437c.2-.576.449-.856.755-.856.735,0,1.708,1.592,2.94,3.608.571.934,1.217,1.991,1.9,2.973-.095-1.31-.225-2.693-.362-4.158l-.063-.674a12.206,12.206,0,0,1,1.334-6.917A9.728,9.728,0,0,1,17.174,0V.716c-.023.028-2.325,2.775-2.391,5.12l.051.094c3.1,5.781,5.531,9.316,7.23,10.507a3.989,3.989,0,0,0,1.28-2.165l.7-.165s0,.006,0,.013a9.032,9.032,0,0,1-1.011,2.1,4.159,4.159,0,0,1-3.346,2.117c-.086,0-.174,0-.26-.01-1.536-.23-3.1-1.555-4.91-4.17.259,3.575.307,6.94-1.067,7.354-.63-.1-1.726-2.177-3-4.581L10.1,16.28c.15.583.308,1.19.461,1.778v0c1.243,4.763,2.528,9.688,1.887,11.78-.078.255-.214.379-.414.379-.563,0-1.551-.993-2.7-2.143-.2-.2-.407-.409-.616-.616l-.089-.088a5.862,5.862,0,0,1-.771,3.6,9.887,9.887,0,0,1-1.152,1.34h0c.327.442.662.884.987,1.311,1.67,2.2,3.246,4.275,3.159,5.793-.1,1.7-2.384,4.113-4.805,6.67l-.385.406c2.136,1.876,4.264,3.87,4.764,5.792.521,2-1.4,3.953-3.13,5.428.324.056.65.111.965.164h.006c2.525.424,4.705.79,4.972,1.662.278.91-1.578,3.66-3.5,6.4,1.692.459,2.65.987,3.017,1.659a1.459,1.459,0,0,1,.081,1.179c-.511,1.611-2.225,3.923-4.039,6.37-1.268,1.71-2.578,3.477-3.646,5.21,1.08-.1,2.325-.347,3.643-.61l.114-.023a27.243,27.243,0,0,1,4.8-.676,3.025,3.025,0,0,1,2.342.721c1.214,1.365-1.8,5.447-4.907,9.261,2.027.389,4.121,1.029,4.285,2.807.228,2.47-2.82,5.431-6.048,8.566-.791.769-1.609,1.563-2.376,2.35.523.1,1.054.19,1.617.288,3.168.547,6.443,1.113,7.562,2.744a2.663,2.663,0,0,1,.421,2.2c-.628,2.65-4.827,4.993-4.869,5.016l5.022-.255h.006c.025,0,.148.009.148.177a.6.6,0,0,0,.014.131c.012.059.014.071-.076.135a.672.672,0,0,1-.35.083h-.029l-5.348.121-5.2,2.909A.466.466,0,0,1,5.645,116.426Zm10.346-7.745L5.17,112.424A12.429,12.429,0,0,0,9.21,113c.564,0,1.149-.029,1.74-.087A13.991,13.991,0,0,0,15.991,108.681Zm-.825-3.37L3.531,108.032a4.2,4.2,0,0,0-.438,2.428c.2,1.259,1.664,1.736,1.678,1.741l11.448-3.981a2.971,2.971,0,0,0,0-1.538,3.615,3.615,0,0,0-1.053-1.372ZM7.15,103.117a16.328,16.328,0,0,0-3.386,4.424l11.066-2.49c-.017-.01-2.126-1.225-7.68-1.934h0Zm7.939-10.528c-1.239,1-11.956,8.1-12.065,8.171,0,.011.444,1.21,3.837,1.543.567-.622,1.4-1.407,2.287-2.237,2.519-2.367,5.654-5.312,5.941-7.477Zm-1.407-2.363-5.84,3.23C7.8,93.5,4.1,98,3.37,99.257c-.512.884-.513,1.147-.468,1.225a.063.063,0,0,0,.053.035l12.121-8.3a1.774,1.774,0,0,0-.293-1.259,2.068,2.068,0,0,0-1.1-.738Zm-2.394-.762h0c-.938,1.014-2.86,3.3-2.941,3.4l5.026-2.845a5.993,5.993,0,0,0-2.084-.552ZM6.965,88.05c.008,0,.136.02.346.054.7.111,2.333.371,3.629.591a33.4,33.4,0,0,0,4.539-6.341l-8.514,5.7Zm7.3-8.591h-.01L3.577,85.352A1.345,1.345,0,0,0,3.8,86.676c.513.768,2.658,1.239,2.679,1.244l9.247-6.143c0-.012.443-1.276,0-1.8A2.143,2.143,0,0,0,14.268,79.459Zm-.736.031h0a58.645,58.645,0,0,0-8.175,1.243,26.21,26.21,0,0,0-1.779,4.2l9.955-5.445Zm-2.046-8.623L2.714,78.211a1.89,1.89,0,0,0,.253,1.409,1.417,1.417,0,0,0,1.171.463,3.923,3.923,0,0,0,.816-.1C5.556,78.405,11.427,70.943,11.487,70.868Zm.223-3.811L7.4,70.07c-.02.026-2.044,2.76-2.473,3.422S2.874,77.566,2.858,77.6l8.985-7.531a5.132,5.132,0,0,0,.625-1.931,1.522,1.522,0,0,0-.758-1.081ZM9.884,66.4h0c-.817,1.071-2.122,3.065-2.135,3.085l3.562-2.611A2.66,2.66,0,0,0,9.884,66.4Zm1.9-4.062-8.827,1.6c.007.006.906.746,6.533,1.437.781-.936,2.279-3.021,2.294-3.042Zm-.219-3.414L4.289,60.707a9.463,9.463,0,0,0-1.912,1.812.743.743,0,0,0,.249,1.124l9.256-1.68c.011-.016,1.129-1.681.994-2.32S11.575,58.922,11.563,58.921ZM7.255,58.1h0c-.825.834-2.453,2.1-2.47,2.117l6.034-1.444A21.8,21.8,0,0,0,7.255,58.1ZM9.7,54.053l-8.581.461a1.694,1.694,0,0,0,.772,1.1c.694.54,2.171,1.255,5.266,1.595A6.752,6.752,0,0,0,9.7,54.053Zm-.987-4.044-5.586.248a12,12,0,0,0-1.383,1.96,10.441,10.441,0,0,0-.587,1.872l8.659-.451a2.535,2.535,0,0,0,.122-1.194A9,9,0,0,0,8.714,50.009ZM5.72,47.244c-.621.787-2.4,2.6-2.472,2.681l5.116-.21C8.359,49.712,6.606,48.044,5.72,47.244Zm-5-6.361c.027.035,2.715,3.553,4.912,4.838a33.711,33.711,0,0,0,3.523-3.87Zm1.954-4.441h0A18.668,18.668,0,0,0,.707,38.735a1.666,1.666,0,0,0-.069,1.808l8.746.986a4.752,4.752,0,0,0,.986-2.2,4.494,4.494,0,0,0-1.16-2.363l-6.531-.527Zm3.957-3.3c-1,.957-3.466,2.9-3.491,2.915l5.894.484C9.029,36.525,7.649,34.353,6.636,33.14ZM4.114,25.2c-.01.013-.981,1.4,2.639,6.662a2.47,2.47,0,0,0,.767-.891Zm.307-.229a1.525,1.525,0,0,0-.184.01L7.708,30.7c0-.006.218-.4.365-.694a4.584,4.584,0,0,0,.247-.946L5.873,25.52a6.512,6.512,0,0,0-.85-.44A1.687,1.687,0,0,0,4.421,24.974Zm2.82-4.093h0c.012.039,1.129,4.033,2,6.553a28.564,28.564,0,0,0,2.184,1.982Zm-1.958-9.3h0c.033.154.8,3.8.829,4.363s1.059,3.933,1.069,3.967l4.659,9.127s.08.105.168.105c.111,0,.243-.166.243-.957a32.856,32.856,0,0,0-.773-4.743Zm.931,14.065h0L8.4,28.691a3,3,0,0,0-.08-1.156A12.51,12.51,0,0,0,6.213,25.644ZM5.528,10.265a.156.156,0,0,0-.12.053.71.71,0,0,0-.082.435l5.562,10.527c0-.014-.727-3.129-1.238-4.908C6.921,11.325,5.9,10.265,5.528,10.265Zm3.629.139h0a45.922,45.922,0,0,0,1.364,5.553c1.639,3.8,2.463,4.6,2.866,4.6.354,0,.423-.616.424-.622Zm.31-1.867a.264.264,0,0,0-.077.011c-.192.058-.146,1.119-.144,1.165l4.772,9.508a2.691,2.691,0,0,0,.18-.981V17.076L9.787,8.683A.548.548,0,0,0,9.467,8.537Zm5,.973h0c0,.032.339,3.354.427,4.422,2.459,3.371,4.018,4.079,4.893,4.079a1.324,1.324,0,0,0,.807-.254l.029-.02C17.192,14.944,14.513,9.6,14.468,9.51Zm.111-3.089a19.138,19.138,0,0,0-.112,2.437c.967,2.009,5.271,8.141,6.538,8.626a1.534,1.534,0,0,0,.767-.516l.043-.049C17.883,13.413,14.612,6.491,14.579,6.422ZM10.114,8.7h0l4.031,7.682a6.352,6.352,0,0,0-.108-2.179A30.733,30.733,0,0,0,10.114,8.7Z" transform="translate(1202.181 5465.67)"/><path class="a" d="M1211.182,5501.435a1.3,1.3,0,0,0,0,1.1.861.861,0,0,0,.643.367l6.626-.016s-.133,11.956-.041,13.01a6.761,6.761,0,0,0,.506,1.965l14.934,41.195s2.419,5.044,2.31,9.388-4.26,7.593-5.415,8.592-3.348,1.724-6.982,2.042-27.818,0-27.818,0a11,11,0,0,1-4.744-1.624c-2.356-1.489-6.473-5.07-6.473-9.01s1.4-6.071,2.465-9.388,12.948-40.5,13.069-41.195.176-1.965.176-1.965v-12.56l2.534.015s.628-.077.74-.515a2.323,2.323,0,0,0,0-1.238c-.112-.46-.74-.6-.74-.6h-3.539c-.53,0-.692.6-.692.6v12.458s.05,1.219,0,2.175a11.425,11.425,0,0,1-.2,1.645s-12.991,38.75-13.815,40.713a20.757,20.757,0,0,0-2.3,9.492c0,4.865,3.336,8.468,7.335,11.56a12.925,12.925,0,0,0,6.182,1.782s23.887.237,27.818.237a13.872,13.872,0,0,0,8.251-2.583c1.606-1.153,6.589-6.355,6.551-11a22.134,22.134,0,0,0-2.4-9.025l-15.564-41.383a7.841,7.841,0,0,1-.369-1.763c-.049-.832,0-1.854,0-1.854s.007-11.588,0-12.012a1.134,1.134,0,0,0-1.116-1.05h-7.286A.671.671,0,0,0,1211.182,5501.435Z" transform="translate(0 10.048)"/><path class="d" d="M1185.833,5572.9l19.777-.284s-2.072,2.661-.325,4.956c2.5,2.234,6.336,1.59,6.336,1.59s-3.963,1.943-4.581,2.248a1.2,1.2,0,0,0,.852,1.007l5.469-3.14s4.25-.139,5.844-.139c.469-.77.125-.922.125-.922l-4.408.154a15.922,15.922,0,0,0,2.852-2.456,4.668,4.668,0,0,0,1.347-3.037l16.037.022s4.413,8.913-6.092,15.092c-2.1.9-6.488,1.27-16.992,1.167-13.285.034-16.855.687-19.67-1C1180.856,5582.237,1185.833,5572.9,1185.833,5572.9Z"/></g></svg>