<svg id="group" xmlns="http://www.w3.org/2000/svg" width="98.194" height="62.78" viewBox="0 0 98.194 62.78">
  <g id="Group_107" data-name="Group 107" transform="translate(0 0)">
    <path id="Path_161" data-name="Path 161" d="M84.924,119.874a11.211,11.211,0,1,0-12.862,0,19.4,19.4,0,0,0-6.625,3.913,25.083,25.083,0,0,0-9.093-4.989,14.2,14.2,0,1,0-14.688,0,25.291,25.291,0,0,0-9,4.93,19.551,19.551,0,0,0-6.548-3.834,11.211,11.211,0,1,0-12.862,0A19.8,19.8,0,0,0,0,138.616v1.291a.084.084,0,0,0,.078.078H23.839a26.493,26.493,0,0,0-.214,3.306v1.33A10.368,10.368,0,0,0,33.962,155.03H64.077a10.368,10.368,0,0,0,10.336-10.408v-1.33a26.492,26.492,0,0,0-.214-3.306H98.117a.084.084,0,0,0,.078-.078v-1.291A19.881,19.881,0,0,0,84.924,119.874ZM70.391,110.62a8.1,8.1,0,1,1,8.257,8.158h-.311A8.12,8.12,0,0,1,70.391,110.62Zm-32.524-4.069A11.094,11.094,0,1,1,49.6,117.7H48.32A11.154,11.154,0,0,1,37.867,106.551ZM11.521,110.62a8.1,8.1,0,1,1,8.257,8.158h-.311A8.133,8.133,0,0,1,11.521,110.62Zm12.862,26.215H3.148a16.645,16.645,0,0,1,16.359-14.927h.233a16.362,16.362,0,0,1,10.589,3.971A25.74,25.74,0,0,0,24.383,136.836Zm46.882,7.786a7.264,7.264,0,0,1-7.228,7.278H33.923a7.264,7.264,0,0,1-7.228-7.278v-1.33a22.4,22.4,0,0,1,21.625-22.44c.214.02.447.02.661.02s.447,0,.661-.02a22.4,22.4,0,0,1,21.625,22.44Zm2.312-7.786a25.672,25.672,0,0,0-5.887-10.877,16.442,16.442,0,0,1,10.686-4.05h.233a16.645,16.645,0,0,1,16.359,14.927Z" transform="translate(0 -92.25)" fill="#474747"/>
  </g>
</svg>
