<svg xmlns="http://www.w3.org/2000/svg" width="163.938" height="207.085" viewBox="0 0 163.938 207.085"><defs><style>.a{fill:#e8e8e8;}</style></defs><g transform="translate(-834.536 -5282.611)"><g transform="translate(865.188 5282.611)"><path class="a" d="M42.423,207.085c-4.212,0-7.767-.434-9.751-1.191-1.249-13.645-1.24-34.911.027-63.21,1.042-23.285,2.664-45.554,3.633-58.859.336-4.615.579-7.948.685-9.784.112-1.955.278-4.329.469-7.078v-.005C38,59.635,38.631,50.521,38.769,42.2c.164-9.846-.409-16.094-1.753-19.1-1.985-1.081-5.7-1.629-11.054-1.629-6.248,0-13.4.731-18.139,1.215-2.357.241-4.059.415-4.8.415a2.984,2.984,0,0,1-2.342-.878,3.211,3.211,0,0,1-.668-2.265V4.028a4.627,4.627,0,0,1,.457-1.56A3.21,3.21,0,0,1,3.021.644L4.213.6h.028C9.49.4,20.412,0,33.217,0,51.7,0,66.669.84,77.7,2.5a320.069,320.069,0,0,1,31.094,7.888A108.345,108.345,0,0,1,125.41,16.95a26.873,26.873,0,0,1,6.659,4.49,4.557,4.557,0,0,1,1.216,1.664c-.057-.01-7.43-1.355-17.691-2.685a296.343,296.343,0,0,0-35.85-2.685c-13.115,0-22.262,1.576-27.186,4.684-4.84,12.669-3.309,34.641-2.487,46.445.145,2.08.27,3.876.327,5.178.044,1.015.165,3.172.333,6.156.624,11.131,1.924,34.292,2.663,58.827.915,30.346.677,52.844-.706,66.87C50.993,206.607,46.868,207.085,42.423,207.085Zm-5.474-43.961v28.7H41.87v-10.8h8.4v-17.9Zm3.031-30.44a3.063,3.063,0,0,0-3.031,2.7v22.933c0,.021.226,2.148,3.031,2.412.667,0,1.5,0,2.391.008,1.041,0,2.22.01,3.33.01,1.15,0,2.065-.006,2.8-.018a2.33,2.33,0,0,0,1.685-.748,2.511,2.511,0,0,0,.527-1.664v-8.8H45.46v8.229H41.771V136.56H45.46v6.385H50.71v-7.564a2.81,2.81,0,0,0-2.954-2.7Zm1.58-30.708c-.488,0-.974,0-1.486.01-2.789.6-2.841,2.394-2.841,2.412v22.274c0,.019.09,1.923,2.841,2.554,1,.012,1.907.018,2.78.018.809,0,1.5,0,2.166-.009.637,0,1.239-.008,1.915-.008,3.136-.55,3.068-2.534,3.067-2.554V115.465H42.765v2.554h3.263v8.655H40.778V104.4h5.249v6.526H50v-7c-.006-.014-.63-1.46-3.067-1.943-.588.013-1.148.019-1.71.019-.6,0-1.126-.007-1.684-.013h-.1C42.894,101.984,42.282,101.977,41.559,101.977ZM43.74,71.689a6.345,6.345,0,0,0-1.282.147,1.75,1.75,0,0,0-1.253.783V97.692a1.76,1.76,0,0,0,1.253.756,6.376,6.376,0,0,0,1.245.142,6.93,6.93,0,0,0,1.288-.142c1.014-.187,1.178-.75,1.18-.756V72.619a1.591,1.591,0,0,0-1.18-.783A5.9,5.9,0,0,0,43.74,71.689Z" transform="translate(0 0)"/><path class="a" d="M916.815,5476.546v13.424h4.693v-13.424Z" transform="translate(-875.6 -5311.349)"/></g><g transform="translate(834.536 5384.324)"><path class="a" d="M879.687,5402.68v25.68s0,1.332,1.081,1.419,1.918,0,2.9,0,1-1.419,1-1.419v-25.68s-.2-1.312-1-1.277-1.914,0-2.964,0S879.687,5402.68,879.687,5402.68Z" transform="translate(-838.915 -5401.402)"/><path class="a" d="M890.557,5402.687s.052-1.2,1.077-1.2h2.244c1.061,0,1.045,1.2,1.045,1.2v24.665h4.584v-24.665s.1-1.2,1.085-1.2H902.9c1.063,0,1.076,1.2,1.076,1.2l.082,25.29s.018,1.8-1.452,1.8H892.026c-1.491,0-1.49-1.91-1.49-1.91Z" transform="translate(-841.73 -5401.415)"/><path class="a" d="M890.557,5402.687s.2-1.2,1.221-1.2h1.877c1.061,0,1.268,1.2,1.268,1.2v24.665h4.584v-24.665s.162-1.2,1.151-1.2H903c.789,0,.982,1.2.982,1.2l.082,25.29s.029,1.8-1.452,1.8H892.026c-1.491,0-1.49-1.91-1.49-1.91Z" transform="translate(-890.536 -5370.15)"/><path class="a" d="M12.11,28.287h-.035c-.343-.012-1.3-.017-2.922-.017-1.758,0-3.953.007-5.555.012l-2.107.005a1.355,1.355,0,0,1-1.3-.955A2.982,2.982,0,0,1,0,26.376L.022,1.2C.024,1.188.23,0,1.242,0H12.463c.78,0,.98,1.189.982,1.2l.082,25.29C13.523,26.509,13.213,28.286,12.11,28.287ZM5.169,2.569a.83.83,0,0,0-.634.242,1.1,1.1,0,0,0-.242.737L4.285,24.066a1.623,1.623,0,0,0,.307,1.083.9.9,0,0,0,.694.277H8.9a.939.939,0,0,0,.736-.29,1.414,1.414,0,0,0,.264-.978L9.868,3.548a1.131,1.131,0,0,0-.24-.754.758.758,0,0,0-.579-.225Z" transform="translate(85.165 31.336)"/><path class="a" d="M946.3,5414.14v-9.335a2.069,2.069,0,0,0-2.183-2.181h-9.151a2.342,2.342,0,0,0-2.351,2.181v9.335l9.151,6.456v7.764h-4.785v-5.655c0-1.231-.94-1.237-.94-1.237h-3.426v6.892s.15,2.006,2.77,2.006h8.731a2.2,2.2,0,0,0,2.183-1.994v-8.29c0-1.208-2.183-2.55-2.183-2.55l-7.136-5.224v-7.5h4.785v7.5s.845,1.832,2.351,1.832Z" transform="translate(-848.636 -5402.625)"/><path class="a" d="M945.613,5414.366v-9.518a2.052,2.052,0,0,0-2.074-2.222h-8.694c-2.074,0-2.233,2.222-2.233,2.222v9.518l8.694,6.583v7.916h-4.546v-5.415c0-1.849-1.914-1.612-1.914-1.612h-2.233v7.027s-.233,2.046,2.233,2.046h8.694a2.137,2.137,0,0,0,2.074-2.034v-8.452c0-1.509-2.074-2.6-2.074-2.6l-6.78-5.327v-7.65h4.546v7.65a2.034,2.034,0,0,0,2.233,1.868Z" transform="translate(-883.74 -5371.29)"/><path class="a" d="M853.281,5437.485s-1.109-.128-1.109.788v27.5h4.136l-.113-24.266h1.274l2.388,24.266h7.082v-28.286H863.6v23.268h-1.227l-2.521-23.268Z" transform="translate(-836.215 -5406.143)"/><path class="a" d="M872.719,5439.1a2.017,2.017,0,0,1,2.292-2.043h9.1s1.486.065,1.486.974v2.105c0,.963-1.486,1.036-1.486,1.036h-6.382v6.648h6.382s1.486-.131,1.486.84v2.641c0,.959-1.486.844-1.486.844h-6.382v8.864h6.382s1.5.081,1.486,1.018.016,1.194,0,2.246-1.486,1.063-1.486,1.063h-9.1s-2.132-.281-2.135-1.929S872.719,5441.352,872.719,5439.1Z" transform="translate(-839.169 -5405.72)"/></g></g></svg>