<svg xmlns="http://www.w3.org/2000/svg" width="40.57" height="41.079" viewBox="0 0 40.57 41.079"><g transform="translate(-4870.952 -2615.032)"><path d="M4870.955,2635c-.226-13.153,12.439-19.968,19.808-19.968s10.812,3.512,10.933,7.652-4.17,8.907-10.449,8.907-10.16-6.274-10.16-6.274a22.325,22.325,0,0,0,9.931,2.7c5.279,0,6.35-3.85,6.278-5.333s-1-3.649-6.533-3.649-15.916,6.761-15.781,15.966,7.048,16.984,16.265,16.984a26.259,26.259,0,0,0,19.671-8.6c-.619,4.337-9.526,12.723-19.45,12.723S4871.18,2648.153,4870.955,2635Z" fill="#2b719e"/><path d="M4879.428,2628.569s.037,10.812,14.986,10.812c7.647,0,12.482-6.45,13.061-11.454a10.891,10.891,0,0,0-2.933-8.341s3.125,15.352-10.127,15.352S4879.428,2628.569,4879.428,2628.569Z" fill="#2b719e"/><path d="M4878.575,2624.587s-.139,14.563,16.026,15.293c10.923,0,17.234-8.264,17.813-13.267a13.606,13.606,0,0,0-1.311-8.1c.06,4.29-3.25,16.86-16.5,16.86S4878.575,2624.587,4878.575,2624.587Z" transform="translate(-1 8)" fill="#2b719e"/></g></svg>