<svg xmlns="http://www.w3.org/2000/svg" width="235.613" height="208.179" viewBox="0 0 235.613 208.179"><defs><style>.a{fill:#e8e8e8;}.b{fill:#d8d8d8;}.c{fill:#c8c7c7;}.d{fill:#aeadad;}</style></defs><g transform="translate(-404.387 -5355.933)"><g transform="translate(404.387 5355.933)"><path class="a" d="M457.273,5355.933c49.4,1.091,75.066,43.03,71.677,73.737-3.5,0-8.786-.072-26.308,0C503.717,5406.955,483.476,5363.435,457.273,5355.933Z" transform="translate(-386.248 -5355.933)"/><path class="a" d="M64.214,0C27.447,3.039,2.024,31.906,0,67.448c3.234,0,10.049-.057,26.231.01C27.852,41.528,36.461,11.445,64.214,0Z" transform="translate(142.828 142.464) rotate(180)"/><path class="a" d="M404.444,5411.7c15.113,0,95.166.17,115.435.191-1.335,28.93-13.906,61.7-42.421,67.575C449.2,5481.333,407.384,5460.275,404.444,5411.7Z" transform="translate(-404.368 -5336.805)"/><g transform="translate(0 0.216)"><path class="a" d="M115.432.017C101.138.017,19.261-.013.116.007-1.689,20.275,17.8,63.6,46.108,73.471c4.395,0,10.2-.3,14.352-1.843-.026-.948,0-4.549,0-8.29A74.444,74.444,0,0,0,81.589,52.966c.083-3.531,0-4.414,0-7.8C88.6,39.312,96.883,31.808,99.836,18.641h13.982C115.432,11.634,115.432,2.967,115.432.017Z" transform="translate(115.432 73.471) rotate(180)"/><path class="b" d="M405.6,5410.609c8.609,12.154,20.46,24.815,35.856,0,1.823-3.342,4.254-7.394,12.053-8.407,64.115-7.5,25.322-42.946,5.571-44.871v8.238c-3.023.857-15.1,5.61-21.177,10.6v7.636c-4.753,3.506-16.3,14.243-18.342,26.807C416.481,5410.526,408.47,5410.547,405.6,5410.609Z" transform="translate(-403.969 -5355.669)"/><path class="c" d="M416,5403.692c3.035-16.328,18.337-26.636,18.337-26.636s36.633,4.59,34,14.6c-4.154,1.513-10.548,2.877-19.838,3.956a14.314,14.314,0,0,0-10.2,7.523c-2.388,4.518-6.1,8.233-8.441,10.87C427.094,5413.081,419.43,5412.909,416,5403.692Z" transform="translate(-400.404 -5348.904)"/><path class="d" d="M429.585,5371.357c41.585,3.692,38.446,20.236,34.033,22.381.545-.779,2.8-8.943-34.033-14.636Z" transform="translate(-395.745 -5350.858)"/><path class="d" d="M0,.016C24.88-.6,39.536,17.1,33.363,26.68c-.193-7.251-6.375-17.885-31.615-18.44C1.188,5.6.447,2.405,0,.016Z" transform="matrix(0.978, 0.208, -0.208, 0.978, 55.05, 1.512)"/></g></g><g transform="translate(499.786 5483.131)"><path class="a" d="M477.541,5459.839a71.922,71.922,0,0,0,21.978,11.628c-7.7,17.117-24.1,58.076-24.1,58.076l10.442-1.2s12.22-28.8,17.869-29.489,5,27.256,5,27.256l6.979-.79s-2.634-38.23,3.357-48.843c-7.361-6.506-10.437-9.781-13.86-13.205a138.1,138.1,0,0,1-20.269-6.551Z" transform="translate(-475.422 -5448.562)"/><path class="a" d="M489.06,5453.4c1.387,4.319,11.4,11.93,11.4,11.93s-2.818-9.3,0-12.586c6.892-3.236,14.084,3.117,12.4,11.954-1.25,3.209-5.112,2.884-6.824,2.371-4.016-4.615-13.365-16.422-13.365-16.422A37.119,37.119,0,0,1,489.06,5453.4Z" transform="translate(-470.744 -5450.646)"/></g><g transform="translate(548.264 5478.788)"><path class="a" d="M511.519,5450.646h10.064v2.581l-2.91.447v22.985l2.91.875v2.567H511.519l.649-2.567,2.739-.875v-22.985l-2.739-.447Z" transform="translate(-511.519 -5446.302)"/><path class="a" d="M521.307,5450.646h9.757v3.095h-2.91v20.37s.867,3.082,6.334,3.082,5.82-3.082,5.82-3.082v-20.37h-2.4v-3.095h8.559v3.095h-2.745v21.4s-.113,5.135-9.238,5.135-10.442-6.162-10.442-6.162v-20.37h-2.739Z" transform="translate(-508.162 -5446.302)"/><path class="a" d="M569.141,5448.979v7.332h-4.1l-1.155-5.331s-15.736-4.04-16.242,15.1,16.1,15.945,16.1,15.945v-8.4l-4.149-1.114v-2.634h12.909v2.634l-3.613,1.114v10.433c-6.3,2.9-27.479,8.354-27.479-17.98S569.141,5448.979,569.141,5448.979Z" transform="translate(-501.266 -5447.412)"/><path class="a" d="M578.51,5453.039l1.636,4.286h2.961V5451.4s-14.18-4.755-15.427,4.519,11.531,11.493,12.466,16.985-8.726,4.676-8.726,4.676l-1.091-4.676h-3.117v5.766c1.325,1.249,15.427,5.144,16.829-4.361s-10.986-11.142-12.622-16.987C571.966,5451.639,578.51,5453.039,578.51,5453.039Z" transform="translate(-492.417 -5446.461)"/></g></g></svg>