<svg id="maintenance" xmlns="http://www.w3.org/2000/svg" width="83.037" height="78.554" viewBox="0 0 83.037 78.554">
  <path id="Path_162" data-name="Path 162" d="M266.3,151.23a1.216,1.216,0,0,0-1.72,0l-1.337,1.337a1.216,1.216,0,0,0,1.72,1.72l1.337-1.337A1.216,1.216,0,0,0,266.3,151.23Z" transform="translate(-220.247 -128.645)" fill="#474747"/>
  <path id="Path_163" data-name="Path 163" d="M284.552,175.1a1.213,1.213,0,0,0,.86-.356l1.337-1.337a1.216,1.216,0,0,0-1.72-1.72l-1.337,1.337a1.216,1.216,0,0,0,.86,2.076Z" transform="translate(-237.382 -145.78)" fill="#474747"/>
  <path id="Path_164" data-name="Path 164" d="M305.48,192.133l-1.337,1.337a1.216,1.216,0,0,0,1.721,1.72l1.337-1.337a1.216,1.216,0,0,0-1.72-1.72Z" transform="translate(-254.517 -162.914)" fill="#474747"/>
  <path id="Path_165" data-name="Path 165" d="M324.595,215.643a1.217,1.217,0,0,0,1.72,0l1.337-1.337a1.216,1.216,0,0,0-1.72-1.72l-1.337,1.337A1.216,1.216,0,0,0,324.595,215.643Z" transform="translate(-271.651 -180.05)" fill="#474747"/>
  <path id="Path_166" data-name="Path 166" d="M48.455,424.018l-2.244,2.244a1.216,1.216,0,1,0,1.72,1.72l2.244-2.244a1.216,1.216,0,0,0-1.72-1.72Z" transform="translate(-38.417 -357.19)" fill="#474747"/>
  <path id="Path_167" data-name="Path 167" d="M253.249,346.122l-7.267-4.2a2.647,2.647,0,0,0-2.639,0l-7.267,4.2a2.647,2.647,0,0,0-1.319,2.286V356.8a2.647,2.647,0,0,0,1.32,2.286l7.267,4.2a2.647,2.647,0,0,0,2.639,0l7.267-4.2a2.647,2.647,0,0,0,1.32-2.286v-8.391A2.648,2.648,0,0,0,253.249,346.122ZM252.136,356.8a.207.207,0,0,1-.1.179l-7.267,4.2a.206.206,0,0,1-.206,0l-7.267-4.2a.207.207,0,0,1-.1-.179v-8.391a.207.207,0,0,1,.1-.179l7.267-4.2a.208.208,0,0,1,.207,0l7.267,4.2a.207.207,0,0,1,.1.179V356.8Z" transform="translate(-196.682 -288.416)" fill="#474747"/>
  <path id="Path_168" data-name="Path 168" d="M272.642,381.9a4.49,4.49,0,1,0,4.49,4.49A4.5,4.5,0,0,0,272.642,381.9Zm0,6.547a2.057,2.057,0,1,1,2.057-2.057A2.059,2.059,0,0,1,272.642,388.443Z" transform="translate(-224.661 -322.198)" fill="#474747"/>
  <path id="Path_169" data-name="Path 169" d="M423.214,325.874a4.49,4.49,0,1,0,4.49-4.49A4.5,4.5,0,0,0,423.214,325.874Zm6.547,0a2.057,2.057,0,1,1-2.057-2.057A2.059,2.059,0,0,1,429.761,325.874Z" transform="translate(-354.574 -271.501)" fill="#474747"/>
  <path id="Path_170" data-name="Path 170" d="M408.309,285.611l-7.267-4.2a2.647,2.647,0,0,0-2.639,0l-7.267,4.2a2.647,2.647,0,0,0-1.32,2.286v8.391a2.647,2.647,0,0,0,1.32,2.286l7.267,4.2a2.646,2.646,0,0,0,2.639,0l2.607-1.505a1.216,1.216,0,0,0-1.216-2.107l-2.607,1.505a.206.206,0,0,1-.206,0l-7.267-4.2a.207.207,0,0,1-.1-.179V287.9a.207.207,0,0,1,.1-.179l7.267-4.2a.206.206,0,0,1,.206,0l7.267,4.2a.207.207,0,0,1,.1.179v8.391a.208.208,0,0,1-.1.179l-.437.252a1.216,1.216,0,0,0,1.216,2.107l.437-.252a2.646,2.646,0,0,0,1.32-2.285V287.9A2.647,2.647,0,0,0,408.309,285.611Z" transform="translate(-326.593 -237.719)" fill="#474747"/>
  <path id="Path_171" data-name="Path 171" d="M123.548,108.869A21.826,21.826,0,0,0,148.5,80.019a1.217,1.217,0,0,0-2-.444l-9.992,9.992-8.336-2.233L125.936,79l1.2-1.2a1.216,1.216,0,0,0-1.72-1.72l-1.694,1.694a1.216,1.216,0,0,0-.315,1.175l2.6,9.692a1.216,1.216,0,0,0,.86.86l9.692,2.6a1.217,1.217,0,0,0,1.175-.315l9.061-9.061a19.392,19.392,0,0,1-22.748,23.764,10.063,10.063,0,0,0-9.574,3.15L88.634,138.866l-.011.013a8.436,8.436,0,0,1-2.89,2.182,1.216,1.216,0,0,0,1.016,2.21,10.852,10.852,0,0,0,3.713-2.8l25.829-29.222A7.623,7.623,0,0,1,123.548,108.869Z" transform="translate(-71.234 -65.683)" fill="#474747"/>
  <path id="Path_172" data-name="Path 172" d="M10.241,89.942a8.5,8.5,0,0,1-4.85-14.928L5.4,75,34.632,49.169a10.065,10.065,0,0,0,3.15-9.574A19.392,19.392,0,0,1,61.546,16.847l-3.928,3.928a1.216,1.216,0,1,0,1.72,1.72l5.355-5.355a1.217,1.217,0,0,0-.444-2A21.826,21.826,0,0,0,35.4,40.088a7.627,7.627,0,0,1-2.379,7.258L3.8,73.176a10.938,10.938,0,0,0,6.246,19.192,1.216,1.216,0,0,0,.2-2.425Z" transform="translate(0 -13.817)" fill="#474747"/>
</svg>
