<svg xmlns="http://www.w3.org/2000/svg" width="370.275" height="55.453" viewBox="0 0 370.275 55.453"><defs><style>.a{fill:#e8e8e8;}</style></defs><path class="a" d="M62.081,72.005V29.84L40.637,62.174H36L14.468,29.84V72.005H6.29V17.474h8.632L38.274,52.881,61.718,17.474h8.541V72.005ZM99.336,17.474h6.906l26.351,54.531h-8.723L116.237,56.03H89.159L81.617,72.005H72.894Zm15.084,33.18L102.789,25.462,90.794,50.654Zm61.243-27.035H153.4V72.005h-8.178V23.618H122.961V17.474h52.7ZM222.73,65.861v6.144h-43.8V17.474h42.979v6.144h-34.8V41.283h30.258v5.76H187.111V65.861Zm-.273-21.505a25.147,25.147,0,0,1,2.044-9.793,26.6,26.6,0,0,1,6-8.756,30.171,30.171,0,0,1,9.677-6.26,33.57,33.57,0,0,1,12.994-2.381,31.022,31.022,0,0,1,14.811,3.3,22.206,22.206,0,0,1,9.177,8.6L270.707,32.6a15.992,15.992,0,0,0-3.5-4.378,18.022,18.022,0,0,0-4.452-2.842,21.508,21.508,0,0,0-4.952-1.536,28,28,0,0,0-5-.461,22.7,22.7,0,0,0-9.5,1.882,21.5,21.5,0,0,0-6.951,4.915,20.357,20.357,0,0,0-4.225,6.836,21.859,21.859,0,0,0-1.408,7.642,20.351,20.351,0,0,0,1.681,8.18,22,22,0,0,0,4.68,6.874,22.59,22.59,0,0,0,7.087,4.762,22.212,22.212,0,0,0,8.9,1.767,26.54,26.54,0,0,0,5.225-.538,21.313,21.313,0,0,0,5.134-1.728,21.9,21.9,0,0,0,4.589-3,14.8,14.8,0,0,0,3.5-4.339l6.815,3.149a17.128,17.128,0,0,1-4.316,5.415,27.461,27.461,0,0,1-6.27,3.955,35.593,35.593,0,0,1-7.405,2.458,36.061,36.061,0,0,1-7.633.845,29.7,29.7,0,0,1-12.176-2.458,32.251,32.251,0,0,1-9.586-6.413,28.771,28.771,0,0,1-6.27-8.986A25.109,25.109,0,0,1,222.458,44.356ZM320.5,28.918a13.144,13.144,0,0,0-2.908-2.074,27.818,27.818,0,0,0-4.089-1.8,32.7,32.7,0,0,0-4.952-1.306,30.473,30.473,0,0,0-5.588-.5q-7.542,0-11.04,2.381a7.49,7.49,0,0,0-3.5,6.528,6.38,6.38,0,0,0,1,3.687,7.82,7.82,0,0,0,3.135,2.5,26.586,26.586,0,0,0,5.316,1.8q3.18.768,7.542,1.613a89.881,89.881,0,0,1,9.041,2.112,28.4,28.4,0,0,1,6.906,2.957,12.648,12.648,0,0,1,4.362,4.3,12.028,12.028,0,0,1,1.5,6.221,12.469,12.469,0,0,1-1.817,6.8,14.651,14.651,0,0,1-4.952,4.762,23.563,23.563,0,0,1-7.406,2.765,45.772,45.772,0,0,1-9.268.883,49.967,49.967,0,0,1-14.13-1.959,41.986,41.986,0,0,1-12.13-5.722l3.907-5.837a21.337,21.337,0,0,0,3.771,2.611,33.006,33.006,0,0,0,5.27,2.343,44.427,44.427,0,0,0,6.361,1.69,37.847,37.847,0,0,0,7.133.653q6.906,0,10.722-2.074a6.681,6.681,0,0,0,3.816-6.221,6.119,6.119,0,0,0-1.227-3.879,10,10,0,0,0-3.589-2.727,30.6,30.6,0,0,0-5.861-2.035q-3.5-.883-7.951-1.8-4.907-1-8.632-2.151a25.23,25.23,0,0,1-6.224-2.765,11,11,0,0,1-3.771-3.917,11.28,11.28,0,0,1-1.272-5.53,13.593,13.593,0,0,1,1.726-6.912,15.259,15.259,0,0,1,4.816-5.069,22.7,22.7,0,0,1,7.36-3.111,39.231,39.231,0,0,1,9.268-1.037,38.588,38.588,0,0,1,11.812,1.69,35.011,35.011,0,0,1,9.359,4.531Zm49.34,0a13.145,13.145,0,0,0-2.908-2.074,27.819,27.819,0,0,0-4.089-1.8,32.7,32.7,0,0,0-4.952-1.306,30.472,30.472,0,0,0-5.588-.5q-7.542,0-11.04,2.381a7.491,7.491,0,0,0-3.5,6.528,6.381,6.381,0,0,0,1,3.687,7.82,7.82,0,0,0,3.135,2.5,26.585,26.585,0,0,0,5.316,1.8q3.18.768,7.542,1.613a89.881,89.881,0,0,1,9.041,2.112,28.406,28.406,0,0,1,6.906,2.957,12.648,12.648,0,0,1,4.362,4.3,12.028,12.028,0,0,1,1.5,6.221,12.469,12.469,0,0,1-1.817,6.8,14.652,14.652,0,0,1-4.952,4.762,23.563,23.563,0,0,1-7.405,2.765,45.773,45.773,0,0,1-9.268.883,49.967,49.967,0,0,1-14.13-1.959,41.986,41.986,0,0,1-12.13-5.722l3.907-5.837a21.338,21.338,0,0,0,3.771,2.611,33.008,33.008,0,0,0,5.27,2.343,44.425,44.425,0,0,0,6.361,1.69,37.847,37.847,0,0,0,7.133.653q6.906,0,10.722-2.074a6.681,6.681,0,0,0,3.816-6.221,6.119,6.119,0,0,0-1.227-3.879,10,10,0,0,0-3.589-2.727,30.6,30.6,0,0,0-5.861-2.035q-3.5-.883-7.951-1.8-4.907-1-8.632-2.151a25.23,25.23,0,0,1-6.224-2.765,11,11,0,0,1-3.771-3.917,11.281,11.281,0,0,1-1.272-5.53,13.594,13.594,0,0,1,1.726-6.912,15.26,15.26,0,0,1,4.816-5.069,22.7,22.7,0,0,1,7.36-3.111,39.232,39.232,0,0,1,9.268-1.037A38.587,38.587,0,0,1,364.3,18.78a35.011,35.011,0,0,1,9.359,4.531Z" transform="translate(-6.29 -17.09)"/></svg>