<svg xmlns="http://www.w3.org/2000/svg" width="27.191" height="44.602" viewBox="0 0 27.191 44.602">
  <path id="Path_112" data-name="Path 112" d="M18.37,24.44s1.113,1.115,1.642,1.694a2.667,2.667,0,0,0,2.031,1.053c1.786.051,2.2-.408,4.536-2.747,5.3-5.3,17.093-16.4,17.093-16.4s2.444-3.465-.593-6.338-7.06,0-7.06,0L24.2,12.208a4.646,4.646,0,0,1-2.171.957c-.51.071-.981-.016-2.015-.957C17.3,9.746,7.534.716,7.534.716S4.743-1.5,1.459,1.865s0,7.142,0,7.142Z" transform="translate(0 44.602) rotate(-90)" fill="#fff"/>
</svg>
