<svg xmlns="http://www.w3.org/2000/svg" width="27.191" height="44.602" viewBox="0 0 27.191 44.602">
  <path id="Path_113" data-name="Path 113" d="M18.37,2.751s1.113-1.115,1.642-1.694A2.667,2.667,0,0,1,22.043,0c1.786-.051,2.2.408,4.536,2.747,5.3,5.3,17.093,16.4,17.093,16.4s2.444,3.465-.593,6.338-7.06,0-7.06,0L24.2,14.983a4.646,4.646,0,0,0-2.171-.957c-.51-.071-.981.016-2.015.957C17.3,17.445,7.534,26.475,7.534,26.475s-2.791,2.216-6.075-1.15,0-7.142,0-7.142Z" transform="translate(0 44.602) rotate(-90)" fill="#fff"/>
</svg>
