<svg id="school" xmlns="http://www.w3.org/2000/svg" width="90.183" height="77.617" viewBox="0 0 90.183 77.617">
  <g id="Group_106" data-name="Group 106" transform="translate(0)">
    <path id="Path_158" data-name="Path 158" d="M86.4,103.1H83.75a4.866,4.866,0,0,0,.532-2.217l0-46.073a4.864,4.864,0,0,0-4.844-4.873H72.305V48.312A2.317,2.317,0,0,0,70,45.99H67.811V39.321a2.331,2.331,0,0,0-.969-1.891,2.3,2.3,0,0,0-2.093-.3l-4.161,1.448a1.328,1.328,0,0,0,.863,2.512l3.718-1.293V71.758L46.413,78.283V46.319l9.712-3.379a1.328,1.328,0,0,0-.863-2.512L45.092,43.966,25.434,37.127a2.3,2.3,0,0,0-2.093.3,2.331,2.331,0,0,0-.969,1.891V45.99H20.186a2.317,2.317,0,0,0-2.307,2.321v1.625H10.744A4.864,4.864,0,0,0,5.9,54.81v4.726a1.321,1.321,0,1,0,2.642,0V54.81a2.211,2.211,0,0,1,2.2-2.215h7.134v2.658H12.506a1.316,1.316,0,0,0-.934.389,1.333,1.333,0,0,0-.387.94l0,42.529a1.325,1.325,0,0,0,1.321,1.329l65.17,0a1.317,1.317,0,0,0,.934-.389,1.333,1.333,0,0,0,.387-.94L79,56.58a1.325,1.325,0,0,0-1.321-1.329h-5.37V52.593h7.132a2.211,2.211,0,0,1,2.2,2.215l0,46.073a2.211,2.211,0,0,1-2.2,2.215l-68.692,0a2.211,2.211,0,0,1-2.2-2.215V65.223a1.321,1.321,0,1,0-2.642,0v35.659a4.863,4.863,0,0,0,.532,2.215H3.787A3.8,3.8,0,0,0,0,106.908v3.9a3.8,3.8,0,0,0,3.787,3.81H56.308a1.329,1.329,0,0,0,0-2.658H3.787a1.15,1.15,0,0,1-1.145-1.152v-3.9a1.15,1.15,0,0,1,1.145-1.152H36.2v.934a3.313,3.313,0,0,0,3.3,3.319H50.688a3.313,3.313,0,0,0,3.3-3.319v-.934H86.4a1.15,1.15,0,0,1,1.145,1.152v3.9a1.15,1.15,0,0,1-1.145,1.152H62.076a1.329,1.329,0,0,0,0,2.658H86.4a3.8,3.8,0,0,0,3.787-3.81v-3.9A3.8,3.8,0,0,0,86.4,103.1ZM66.258,74.191A2.322,2.322,0,0,0,67.811,72V48.649h1.852V78.82H52.954Zm-41.244-34.4,18.757,6.526V78.283L25.014,71.758ZM20.52,48.649h1.852V72a2.322,2.322,0,0,0,1.554,2.194l13.3,4.629H20.52Zm55.834,9.261,0,39.871-62.528,0,0-39.871h4.051V79.157a2.317,2.317,0,0,0,2.307,2.321H70a2.317,2.317,0,0,0,2.307-2.321V57.909Zm-25.01,48.78a.66.66,0,0,1-.657.661H39.5a.66.66,0,0,1-.657-.661v-.934H51.345Z" transform="translate(0 -37)" fill="#474747"/>
    <path id="Path_159" data-name="Path 159" d="M186.013,309.387h-34.7a1.321,1.321,0,1,0,0,2.642h34.7a1.321,1.321,0,0,0,0-2.642Z" transform="translate(-123.57 -261.108)" fill="rgba(71,71,71,0.72)"/>
    <path id="Path_160" data-name="Path 160" d="M173.816,341.2H151.31a1.321,1.321,0,1,0,0,2.642h22.506a1.321,1.321,0,1,0,0-2.642Z" transform="translate(-123.57 -287.284)" fill="rgba(71,71,71,0.72)"/>
  </g>
</svg>
