<svg xmlns="http://www.w3.org/2000/svg" width="86" height="86" viewBox="0 0 86 86"><path d="M97.2,24.075a1.425,1.425,0,0,0-1.06-.995L87.4,21.105l-1.975-8.743a1.426,1.426,0,0,0-2.4-.694L72.969,21.726A40.687,40.687,0,1,0,86.784,35.541l10.06-10.06a1.428,1.428,0,0,0,.36-1.405ZM89.78,56.567A37.832,37.832,0,1,1,70.887,23.811L66.269,28.43a1.415,1.415,0,0,0-.11.143A31.439,31.439,0,1,0,79.931,42.364a1.405,1.405,0,0,0,.149-.121L84.7,37.624A37.7,37.7,0,0,1,89.78,56.567ZM76.546,42.126A28.5,28.5,0,1,1,66.382,31.952l1.5,6.656-1.441,1.441a22.034,22.034,0,1,0,2.018,2.018L69.9,40.626ZM58.078,56.567a6.158,6.158,0,1,1-2.931-5.222l-4.213,4.213a1.427,1.427,0,1,0,2.018,2.017l4.213-4.213A6.087,6.087,0,0,1,58.078,56.567ZM57.2,49.292a9.025,9.025,0,1,0,2.017,2.018l7.221-7.221a19.167,19.167,0,1,1-2.017-2.018ZM83.977,34.311l-5.355,5.354-.8-.181-.031-.007-7.146-1.608-1.8-7.976L83.216,15.515l1.6,7.1A1.428,1.428,0,0,0,85.9,23.691l7.1,1.6Z" transform="translate(-11.261 -11.25)" fill="#474747"/></svg>