<svg xmlns="http://www.w3.org/2000/svg" width="90.058" height="91.331" viewBox="0 0 90.058 91.331">
  <g id="Tree_icon" data-name="Tree icon" transform="translate(1 1.25)">
    <path id="Path_177" data-name="Path 177" d="M-3352.266,5677.008h30.542v-38.655h-30.542Z" transform="translate(3352.266 -5613.38)" fill="none" stroke="#fff" stroke-width="2"/>
    <path id="Path_178" data-name="Path 178" d="M-3346.206,5663.9v9.484h14.626" transform="translate(3351.931 -5614.792)" fill="none" stroke="#fff" stroke-width="1"/>
    <path id="Path_179" data-name="Path 179" d="M-3346.206,5656.844v2.823" transform="translate(3351.931 -5614.402)" fill="none" stroke="#fff" stroke-width="1"/>
    <path id="Path_180" data-name="Path 180" d="M-3346.206,5652.169v2.172" transform="translate(3351.931 -5614.144)" fill="none" stroke="#fff" stroke-width="1"/>
    <path id="Path_181" data-name="Path 181" d="M-3346.206,5649.552v-5.431h19.984v4.489" transform="translate(3351.931 -5613.698)" fill="none" stroke="#fff" stroke-width="1"/>
    <path id="Path_182" data-name="Path 182" d="M-3288.619,5611.919v28.474h27.679v-28.474Z" transform="translate(3348.748 -5611.919)" fill="none" stroke="#fff" stroke-width="2.5"/>
    <path id="Path_183" data-name="Path 183" d="M-3288.619,5676.745v27.838h27.36v-27.838Z" transform="translate(3348.748 -5615.502)" fill="none" stroke="#fff" stroke-width="2"/>
    <path id="Path_184" data-name="Path 184" d="M-3279.358,5682.3h4.772" transform="translate(3348.236 -5615.81)" fill="none" stroke="#fff" stroke-width="1"/>
    <path id="Path_185" data-name="Path 185" d="M-3271.276,5682.3h6.2v16.384" transform="translate(3347.789 -5615.809)" fill="none" stroke="#fff" stroke-width="1"/>
    <path id="Path_186" data-name="Path 186" d="M-3319.937,5674.725l29.587,13.521" transform="translate(3350.479 -5615.39)" fill="none" stroke="#fff" stroke-width="1"/>
    <path id="Path_187" data-name="Path 187" d="M-3319.937,5661.928l29.11,14" transform="translate(3350.479 -5614.683)" fill="none" stroke="#fff" stroke-width="1"/>
    <path id="Path_188" data-name="Path 188" d="M-3319.937,5655.065l29.587-13.68" transform="translate(3350.479 -5613.548)" fill="none" stroke="#fff" stroke-width="1"/>
    <path id="Path_189" data-name="Path 189" d="M-3319.937,5642.277l29.587-13.521" transform="translate(3350.479 -5612.85)" fill="none" stroke="#fff" stroke-width="1"/>
  </g>
</svg>
