<svg xmlns="http://www.w3.org/2000/svg" width="260" height="190.336" viewBox="0 0 260 190.336"><defs><style>.a{fill:#e8e8e8;}</style></defs><g transform="translate(-238.506 -5313.03)"><path class="a" d="M278,5367.362l96.366-38.332,96.36,38.332H458.29l-83.924-32.5-84.286,32.5Z" transform="translate(-5.918 -4.14)"/><path class="a" d="M278,5373.549l111.919-44.519,111.912,44.519v5.835L389.919,5335.8,278,5379.135Z" transform="translate(-21.485 -16)"/><path class="a" d="M257,5387.31H480.68v6.5H257Z" transform="translate(-0.485 -20.752)"/><path class="a" d="M257,5387.31H480.68v6.5H257Z" transform="translate(-0.485 83.498)"/><path class="a" d="M257,5387.31H501.278v6.5H257Z" transform="translate(-10.633 96.529)"/><path class="a" d="M257,5387.31H517v6.5H257Z" transform="translate(-18.494 109.56)"/><path class="a" d="M20.886,123.431q-5.525,0-8.6-2.7a14.332,14.332,0,0,1-4.3-7.339A41.005,41.005,0,0,1,6.76,102.942v-63.2h3.776v63.3a34.575,34.575,0,0,0,.874,8.1,10.748,10.748,0,0,0,3.147,5.657,9.144,9.144,0,0,0,6.329,2.039A8.688,8.688,0,0,0,27,116.754a11.664,11.664,0,0,0,3.252-5.657,30.457,30.457,0,0,0,.979-8.053v-63.3h3.706v63.2a37.937,37.937,0,0,1-1.329,10.448,15.091,15.091,0,0,1-4.371,7.339Q26.2,123.431,20.886,123.431Zm24.9-1.121V39.741h3.007l19.231,69.724V39.741h3.357V122.31H68.369L49.138,52.483V122.31Zm36.993,0V39.741h19.581v4.485H86.621V77.356H99.558v4.281H86.621v36.289h15.944v4.383Zm39.93,1.019a10.519,10.519,0,0,1-7.378-2.65,16.519,16.519,0,0,1-4.406-7.441,46.3,46.3,0,0,1-1.853-11.315l3.287-1.529a66.323,66.323,0,0,0,1.5,9.582,14.5,14.5,0,0,0,3.112,6.473,7.472,7.472,0,0,0,5.8,2.294,7.96,7.96,0,0,0,6.608-3.058q2.413-3.058,2.413-10.194a23.746,23.746,0,0,0-1.923-9.735,56.528,56.528,0,0,0-5.42-9.327L114.1,71.443a29.661,29.661,0,0,1-3.776-7.747,26.949,26.949,0,0,1-1.189-7.951q0-8.155,3.462-12.538a10.924,10.924,0,0,1,8.986-4.383,12.155,12.155,0,0,1,5.175,1.07,10.283,10.283,0,0,1,4.021,3.466,18.553,18.553,0,0,1,2.692,6.371,52.181,52.181,0,0,1,1.259,9.786l-3.217,1.121a46.321,46.321,0,0,0-1.329-9.684,11.956,11.956,0,0,0-3.077-5.759,7.692,7.692,0,0,0-5.455-1.886,8.33,8.33,0,0,0-6.434,2.854q-2.587,2.854-2.587,9.174a21.455,21.455,0,0,0,.874,6.116,23.313,23.313,0,0,0,3.252,6.422l10.21,14.679A62.9,62.9,0,0,1,132.879,93a29.518,29.518,0,0,1,2.483,12.181,27.883,27.883,0,0,1-1.608,10.245,12.531,12.531,0,0,1-4.476,5.963A11.466,11.466,0,0,1,122.7,123.329Zm33.916.1q-5.594,0-8.566-3.364a18.868,18.868,0,0,1-4.091-9.021,64.5,64.5,0,0,1-1.119-12.487V63.492A61,61,0,0,1,144.033,50.8a18.058,18.058,0,0,1,4.2-8.766q3.007-3.211,8.392-3.211a10.371,10.371,0,0,1,7.762,2.854,16.522,16.522,0,0,1,3.986,8.1,56.108,56.108,0,0,1,1.189,12.283v4.179h-3.636V62.065a55.84,55.84,0,0,0-.769-10.041,12.815,12.815,0,0,0-2.8-6.371,7.335,7.335,0,0,0-5.734-2.243,7.877,7.877,0,0,0-6.224,2.446,13.649,13.649,0,0,0-2.937,6.83,59.6,59.6,0,0,0-.769,10.194V99.374a55.849,55.849,0,0,0,.839,10.448,13.38,13.38,0,0,0,3.007,6.677,7.874,7.874,0,0,0,6.084,2.345,7.258,7.258,0,0,0,5.8-2.345,13.367,13.367,0,0,0,2.762-6.575,58.134,58.134,0,0,0,.734-9.837V95.093h3.636V99.17a63.318,63.318,0,0,1-1.119,12.538,17.978,17.978,0,0,1-3.916,8.614Q161.726,123.431,156.621,123.431Zm35.455,0q-5.524,0-8.566-3.211a17.884,17.884,0,0,1-4.231-8.766,60.443,60.443,0,0,1-1.189-12.589V62.779a55.128,55.128,0,0,1,1.259-12.436,17.24,17.24,0,0,1,4.3-8.461q3.042-3.058,8.427-3.058t8.427,3.058a17.24,17.24,0,0,1,4.3,8.461,55.126,55.126,0,0,1,1.259,12.436V98.966a59.7,59.7,0,0,1-1.189,12.538,17.848,17.848,0,0,1-4.231,8.716Q197.6,123.431,192.076,123.431Zm0-4.587a8.171,8.171,0,0,0,6.259-2.345,13.107,13.107,0,0,0,3.042-6.575,51.029,51.029,0,0,0,.839-9.837V61.963a50.228,50.228,0,0,0-.839-9.786,12.909,12.909,0,0,0-3.007-6.473,9.734,9.734,0,0,0-12.553,0,12.74,12.74,0,0,0-3.042,6.473,50.228,50.228,0,0,0-.839,9.786v38.124a51.029,51.029,0,0,0,.839,9.837,13.107,13.107,0,0,0,3.042,6.575A8.171,8.171,0,0,0,192.076,118.844Z" transform="translate(262.02 5340.737)"/></g></svg>