<svg id="Wing_logo" data-name="Wing logo" xmlns="http://www.w3.org/2000/svg" width="96.341" height="75.888" viewBox="0 0 96.341 75.888">
  <path id="Path_133" data-name="Path 133" d="M268.207,1734.76l0,27.731,6.178-5.419-2.808-2.8,9.356-2.887,4.544-3.808h-8.338l12.626-3.659,3.29-3.331h-8.472l12.955-3.7,3.537-3H290.957l15.093-4.565,10.321-9.156-28.584,7.161-12.218,15.655Z" transform="translate(-220.063 -1707.096)" fill="#00786d"/>
  <path id="Path_134" data-name="Path 134" d="M268.24,1759.572v4.865l7.323,8.2v-4.763Z" transform="translate(-220.064 -1736.728)" fill="#005445"/>
  <path id="Path_138" data-name="Path 138" d="M275.966,1759.644v4.865l-7.353,8.233v-4.84Z" transform="translate(-227.79 -1736.782)" fill="#00a089"/>
  <path id="Path_135" data-name="Path 135" d="M276.494,1749.2h3.971L268.24,1764.84v-4.764Z" transform="translate(-212.741 -1728.931)" fill="#02a086"/>
  <path id="Path_139" data-name="Path 139" d="M271.954,1749.2H267.9l12.23,15.665.006-4.811Z" transform="translate(-239.29 -1728.931)" fill="#004840"/>
  <path id="Path_136" data-name="Path 136" d="M16.589,2.5,19.871,0,3,24.206,0,26.812Z" transform="translate(81.343 0.025) rotate(41)" fill="#84ccc7"/>
  <path id="Path_140" data-name="Path 140" d="M15.974,23.778l3.943,3.067L3.052,2.653,0,0Z" transform="translate(32.728 20.26) rotate(139)" fill="#81dfda"/>
  <path id="Path_137" data-name="Path 137" d="M316.4,1734.829v27.631l-6.169-5.387,2.808-2.8-9.356-2.887-4.544-3.808h8.338l-12.626-3.659-3.29-3.331h8.472l-12.955-3.7-3.537-3h10.117l-15.093-4.565-10.321-9.156,28.584,7.161,12.257,15.709Z" transform="translate(-268.24 -1707.096)" fill="#00b39b"/>
  <path id="Path_141" data-name="Path 141" d="M125.349,1925.939h3.892l3.475,12.024,4.309-12.024h2.5l3.823,12.024,3.894-12.024h4.1l-6.394,18.419H142.14l-3.933-12.65-3.892,12.65h-2.85Z" transform="translate(-112.714 -1868.504)" fill="#0eac95"/>
  <path id="Path_142" data-name="Path 142" d="M243.132,1925.939h3.795v18.345h-3.795Z" transform="translate(-201.263 -1868.504)" fill="#0eac95"/>
  <path id="Path_143" data-name="Path 143" d="M278.5,1925.939v18.345h3.962v-11.565l6.325,11.565h3.324l-.023-18.345h-3.765v10.672l-6.232-10.672Z" transform="translate(-227.852 -1868.504)" fill="#0db4a0"/>
  <path id="Path_144" data-name="Path 144" d="M364.7,1925.464v2.8s.005.013,0,0c-.922-1.283-11.392-5.136-11.392,4.812s7.65,7.855,7.65,7.855v-5.593h-2.92v-2.262H364.7v9.336a22.327,22.327,0,0,1-6.885.76c-4.811,0-8.363-4.626-8.209-9.521s3.331-9.336,8.76-9.336S364.7,1925.464,364.7,1925.464Z" transform="translate(-281.308 -1867.28)" fill="#0cbcaa"/>
</svg>
